<?xml version="1.0" encoding="UTF-8" standalone="no"?>
<svg
   viewBox="0 0 36 64"
   version="1.1"
   id="svg1"
   sodipodi:docname="heart.svg"
   inkscape:version="1.3.2 (091e20ef0f, 2023-11-25, custom)"
   width="36"
   height="64"
   xmlns:inkscape="http://www.inkscape.org/namespaces/inkscape"
   xmlns:sodipodi="http://sodipodi.sourceforge.net/DTD/sodipodi-0.dtd"
   xmlns="http://www.w3.org/2000/svg"
   xmlns:svg="http://www.w3.org/2000/svg">
  <defs
     id="defs1" />
  <sodipodi:namedview
     id="namedview1"
     pagecolor="#ffffff"
     bordercolor="#000000"
     borderopacity="0.25"
     inkscape:showpageshadow="2"
     inkscape:pageopacity="0.0"
     inkscape:pagecheckerboard="0"
     inkscape:deskcolor="#d1d1d1"
     inkscape:zoom="8"
     inkscape:cx="-17.75"
     inkscape:cy="29.1875"
     inkscape:window-width="1912"
     inkscape:window-height="1048"
     inkscape:window-x="4"
     inkscape:window-y="28"
     inkscape:window-maximized="0"
     inkscape:current-layer="svg1" />
  <path
     id="rect1"
     style="fill:#23263a;fill-opacity:1;stroke-width:1.33415"
     d="M 0 0 L 0 39.535156 C 2.019947 38.513517 4.5047831 38.399367 6.7070312 39.447266 C 10.33638 41.174224 11.814452 45.386866 10.007812 48.857422 C 9.7519524 49.348942 9.4387317 49.793406 9.0878906 50.199219 C 7.1288783 52.815189 3.6415957 54.798728 0 56.017578 L 0 64 L 36 64 L 36 56.017578 C 32.700821 57.12182 29.276147 57.599726 26.740234 57.324219 C 23.040497 53.604801 19.71289 44.888089 21.623047 39.035156 C 21.748805 38.522241 21.931302 38.015592 22.1875 37.523438 C 23.993811 34.053511 28.400607 32.640542 32.029297 34.367188 C 34.232217 35.415406 35.634564 37.378472 36 39.535156 L 36 0 L 0 0 z M 23.181641 5.1191406 C 25.669441 5.2084218 28.031464 6.6202878 29.21875 9.0058594 C 29.463694 9.4980134 29.639532 10.006617 29.759766 10.519531 C 31.586011 16.372458 28.404398 25.089179 24.867188 28.808594 C 19.766522 29.388203 10.894018 26.669558 7.3242188 21.683594 C 6.9887893 21.277781 6.6899342 20.833318 6.4453125 20.341797 C 4.718035 16.871238 6.1316414 12.658601 9.6015625 10.931641 C 11.707072 9.8837402 14.082456 9.9978914 16.013672 11.019531 C 16.363055 8.8628494 17.704399 6.897827 19.810547 5.8496094 C 20.894698 5.3100332 22.050822 5.0785583 23.181641 5.1191406 z " />
</svg>
