<?xml version="1.0" encoding="UTF-8" standalone="no"?>
<svg
   viewBox="0 0 36 72"
   version="1.1"
   id="svg1"
   sodipodi:docname="heart.svg"
   inkscape:version="1.3.2 (091e20ef0f, 2023-11-25, custom)"
   width="36"
   height="72"
   xmlns:inkscape="http://www.inkscape.org/namespaces/inkscape"
   xmlns:sodipodi="http://sodipodi.sourceforge.net/DTD/sodipodi-0.dtd"
   xmlns="http://www.w3.org/2000/svg"
   xmlns:svg="http://www.w3.org/2000/svg">
  <defs
     id="defs1" />
  <sodipodi:namedview
     id="namedview1"
     pagecolor="#ffffff"
     bordercolor="#000000"
     borderopacity="0.25"
     inkscape:showpageshadow="2"
     inkscape:pageopacity="0.0"
     inkscape:pagecheckerboard="0"
     inkscape:deskcolor="#d1d1d1"
     inkscape:zoom="11.472222"
     inkscape:cx="-10.329298"
     inkscape:cy="37.438257"
     inkscape:window-width="1908"
     inkscape:window-height="1044"
     inkscape:window-x="0"
     inkscape:window-y="0"
     inkscape:window-maximized="0"
     inkscape:current-layer="svg1" />
  <rect
     style="fill:#23263a;fill-opacity:1;stroke-width:1.41508"
     id="rect1"
     width="36"
     height="72"
     x="0"
     y="0" />
  <path
     fill="#aa8ed6"
     d="M 29.219552,10.00663 C 27.492587,6.5367007 23.279767,5.1237806 19.810476,6.8504277 c -2.106152,1.0482198 -3.447177,3.0128801 -3.79656,5.1695663 -1.93122,-1.021642 -4.307156,-1.136392 -6.4126698,-0.08849 -3.4699281,1.726964 -4.8831648,5.939147 -3.1558839,9.409712 0.2446221,0.491523 0.5440428,0.936708 0.8794729,1.342521 3.5698068,4.985974 12.4418668,7.704819 17.5425428,7.125208 3.537218,-3.719421 6.718223,-12.43701 4.891974,-18.289949 -0.120234,-0.512916 -0.294856,-1.020211 -0.5398,-1.512366 z"
     id="path1"
     style="stroke-width:0.711179" />
  <path
     fill="#aa8ed6"
     d="m -13.812391,44.523029 c 1.806314,-3.46993 6.212698,-4.88285 9.841392,-3.156203 2.202922,1.04822 3.605563,3.012881 3.970999,5.169567 2.019953,-1.021642 4.505055,-1.136392 6.70731,-0.08849 3.62936,1.726964 5.10753,5.939147 3.300887,9.409712 -0.255862,0.491523 -0.56904,0.936708 -0.919882,1.342521 -3.733828,4.985974 -13.013529,7.704819 -18.348564,7.125208 -3.699741,-3.719421 -7.026903,-12.43701 -5.116744,-18.289949 0.125759,-0.512916 0.308404,-1.020211 0.564602,-1.512366 z"
     id="path2"
     style="stroke-width:0.727334" />
  <path
     fill="#aa8ed6"
     d="m 22.187609,44.523029 c 1.806313,-3.46993 6.212698,-4.88285 9.841392,-3.156203 2.202922,1.04822 3.605563,3.012881 3.970999,5.169567 2.019953,-1.021642 4.505055,-1.136392 6.70731,-0.08849 3.62936,1.726964 5.10753,5.939147 3.300887,9.409712 -0.255862,0.491523 -0.56904,0.936708 -0.919882,1.342521 -3.733828,4.985974 -13.013529,7.704819 -18.348564,7.125208 -3.699741,-3.719421 -7.026903,-12.43701 -5.116744,-18.289949 0.125758,-0.512916 0.308404,-1.020211 0.564602,-1.512366 z"
     id="path3"
     style="stroke-width:0.727334" />
</svg>
